<svg width="50" height="50" viewBox="0 0 50 50" fill="none" xmlns="http://www.w3.org/2000/svg">
<path d="M22.6074 0.107426C14.7949 0.917973 7.9492 5.15625 3.78904 11.7871C-1.03518 19.4629 -1.25002 29.4629 3.24217 37.3047C5.61521 41.4355 9.08201 44.8242 13.1738 47.0117C16.6601 48.877 20.5078 49.9023 24.1211 49.9414L25.4394 49.9512L25.4687 40.2539L25.4883 30.5664H22.8027H20.1172V27.4414V24.3164L22.7832 24.2969L25.4394 24.2676L25.498 20.9961C25.5469 18.0273 25.5664 17.6563 25.7617 16.9434C26.5137 14.2481 28.3008 12.4512 31.0058 11.6992C31.709 11.5039 32.0215 11.4844 34.082 11.4844C35.3418 11.4746 36.8066 11.5137 37.334 11.5625L38.2812 11.6406V14.4531V17.2656L35.9668 17.3047C33.6523 17.334 33.6426 17.334 33.1347 17.5977C32.0605 18.1641 31.9336 18.6231 31.9336 21.8457V24.3164H35.0097C36.6992 24.3164 38.0859 24.3457 38.0859 24.3848C38.0859 24.4336 37.9101 25.8008 37.6953 27.4316C37.4804 29.0723 37.3047 30.4395 37.3047 30.4883C37.3047 30.5273 36.0937 30.5664 34.6191 30.5664H31.9336V39.7949C31.9336 44.873 31.9531 49.0234 31.9726 49.0234C32.1582 49.0234 34.4824 48.1445 35.3613 47.7441C38.3008 46.3965 40.5761 44.7754 42.9199 42.373C44.9609 40.2734 46.2207 38.4668 47.5195 35.791C48.6719 33.4082 49.4629 30.752 49.8242 28.0273C49.9804 26.8164 49.9804 23.0566 49.8242 21.9238C49.0039 16.1523 46.6211 11.2891 42.666 7.33399C38.789 3.4668 33.9648 1.04493 28.4668 0.234379C27.2656 0.0585976 23.7988 -0.0195274 22.6074 0.107426Z" fill="#E0FFC7"/>
</svg>
