<svg width="50" height="50" viewBox="0 0 50 50" fill="none" xmlns="http://www.w3.org/2000/svg">
<g clip-path="url(#clip0_622_405)">
<path d="M23.1934 0.644531C23.0371 0.664062 22.4805 0.732422 21.9727 0.791016C17.7246 1.26953 13.4863 3.04688 9.86328 5.84961C8.78906 6.67969 6.66992 8.79883 5.83984 9.87305C3.13477 13.3594 1.49414 17.2168 0.810547 21.6504C0.585938 23.1152 0.585938 26.8848 0.810547 28.3496C1.9043 35.4492 5.625 41.377 11.4258 45.2637C14.6484 47.4219 17.959 48.6621 22.0215 49.2383C23.3398 49.4238 26.9336 49.3945 28.3691 49.1895C32.0117 48.6523 35.5078 47.3145 38.4766 45.332C44.502 41.2988 48.2031 35.3223 49.2383 27.9785C49.4043 26.8164 49.3945 23.1641 49.2285 21.9727C48.3691 15.7715 45.3809 10.2637 40.7715 6.37695C37.2852 3.42773 32.9395 1.47461 28.418 0.830078C27.3633 0.673828 23.8574 0.546875 23.1934 0.644531ZM32.1875 10.166C33.5547 10.3125 34.4922 10.5762 35.5957 11.1231C37.5684 12.0996 38.7793 13.5059 39.5117 15.6543C40.0195 17.1484 40.0391 17.4414 40.0391 25C40.0391 30.7227 40.0098 32.1582 39.8926 32.8223C39.1797 36.9043 36.4844 39.3555 32.1777 39.8438C31.0059 39.9707 18.9746 39.9707 17.8223 39.8438C14.668 39.4824 12.2949 38.0273 11.0742 35.7129C10.625 34.8535 10.2832 33.8379 10.1074 32.8223C9.89258 31.6211 9.89258 18.3789 10.1074 17.1777C10.3809 15.5859 11.0254 14.1113 11.9043 13.0371C13.1445 11.5234 15.332 10.4395 17.6758 10.166C18.7695 10.0391 31.0645 10.0391 32.1875 10.166Z" fill="#E0FFC7"/>
<path d="M21.2402 12.9004C17.2559 12.9688 17.002 12.998 15.6641 13.6328C14.4141 14.2188 13.3691 15.5957 12.9297 17.2363C12.7539 17.8711 12.7441 18.3789 12.7441 25C12.7441 31.6211 12.7539 32.1289 12.9297 32.7637C13.3691 34.4043 14.4141 35.7812 15.6641 36.3672C17.002 37.002 17.2461 37.0312 21.3184 37.0996C23.3398 37.1289 26.6602 37.1289 28.6914 37.0996C32.7539 37.0312 32.998 37.002 34.3359 36.3672C35.5859 35.7812 36.6309 34.4043 37.0703 32.7637C37.2461 32.1289 37.2559 31.6211 37.2559 25C37.2559 18.3789 37.2461 17.8711 37.0703 17.2363C36.6309 15.5957 35.5859 14.2188 34.3359 13.6328C33.1055 13.0469 32.627 12.9688 30.0293 12.9297C28.7402 12.9102 27.0508 12.8809 26.2695 12.8613C25.4883 12.8516 23.2324 12.8711 21.2402 12.9004ZM33.6328 15.6641C33.8086 15.7422 34.082 15.9668 34.2383 16.1719C34.4727 16.4746 34.5215 16.6309 34.5215 17.0996C34.5215 17.5195 34.4727 17.7344 34.3164 17.9395C33.584 18.9258 32.1973 18.9062 31.6113 17.8906C31.3672 17.4707 31.3672 16.7188 31.6016 16.3086C31.9922 15.6445 32.9004 15.3613 33.6328 15.6641ZM26.8262 17.2852C30.4395 18.1445 32.9102 21.2891 32.9102 25C32.9102 29.4336 29.4336 32.9102 25 32.9102C20.5762 32.9102 17.0898 29.4238 17.0898 25C17.0898 21.3086 19.541 18.1738 23.125 17.2852C24.1699 17.0312 25.7715 17.0312 26.8262 17.2852Z" fill="#E0FFC7"/>
<path d="M23.4375 20.1465C21.748 20.7227 20.5762 21.9434 20.0781 23.623C19.9902 23.9355 19.9219 24.5117 19.9219 25C19.9219 26.4258 20.4297 27.6563 21.3965 28.6133C22.3828 29.5898 23.584 30.0781 25 30.0781C26.4258 30.0781 27.6562 29.5703 28.6133 28.6035C29.5898 27.6172 30.0781 26.416 30.0781 25C30.0781 22.666 28.623 20.7422 26.377 20.0781C25.5762 19.8438 24.2285 19.873 23.4375 20.1465Z" fill="#E0FFC7"/>
</g>
<defs>
<clipPath id="clip0_622_405">
<rect width="50" height="50" fill="white"/>
</clipPath>
</defs>
</svg>
