<svg width="188" height="188" viewBox="0 0 188 188" fill="none" xmlns="http://www.w3.org/2000/svg">
<rect width="188" height="188" rx="94" fill="white"/>
<path d="M47.0006 93.1216L92.5623 33.8922L135.653 81.1522L150.592 67.2226L187.545 103.228C187.84 100.192 188 97.1157 188 94.0013C188 42.0863 145.916 7.62939e-06 94.0013 7.62939e-06C42.0863 7.62939e-06 0 42.0863 0 94.0013C0 99.3936 0.480505 104.674 1.35254 109.82L29.4965 83.0488L47.0006 93.1216Z" fill="#7CBF00"/>
<path d="M149.154 81.1318L137.373 83.0386L159.466 107.27L116.782 78.4929L105.031 89.0462L93.9999 69.381L89.444 100.316L74.0983 82.8098L48.9187 114.704L29.2561 96.4775L22.0612 114.704L17.7468 103.911L1.47571 110.509C9.28076 154.545 47.7213 188 93.9999 188C142.742 188 182.815 150.902 187.531 103.4L149.154 81.1318Z" fill="#7CBF00"/>
</svg>
