<?xml version="1.0" encoding="UTF-8"?>
<svg id="Layer_2" data-name="Layer 2" xmlns="http://www.w3.org/2000/svg" viewBox="0 0 188.16 188">
  <defs>
    <style>
      .cls-1 {
        fill: #fff;
      }

      .cls-2 {
        fill: #66be3e;
      }
    </style>
  </defs>
  <path class="cls-2" d="M188.16,94c0,3.06-.15,6.09-.44,9.08,0,.04,0,.08-.01.11-4.61,47.6-44.73,84.81-93.55,84.81S9.14,154.32,1.53,110.05c-.04-.22-.08-.44-.11-.66-.83-5.01-1.26-10.15-1.26-15.39C.16,42.08,42.25,0,94.16,0s94,42.08,94,94Z"/>
  <path class="cls-1" d="M149.79,81.03l-12.4,2.45,21.95,23.76-43.12-28.92-11.36,11.1-11.11-19.49-4.38,30.47-16.14-17.43-25.3,32.27-19.49-18.98-7.49,18.34-4.78-10.33-14.64,5.78c-.04-.22-.08-.44-.11-.66l27.27-26.04,17.17,10.33,46.48-60.03,43.63,48.16,15.11-14.72,36.64,35.99s0,.08-.01.11l-37.92-22.16Z"/>
</svg>